<svg width="349" height="381" viewBox="0 0 349 381" fill="none" xmlns="http://www.w3.org/2000/svg">
<path fill-rule="evenodd" clip-rule="evenodd" d="M25.9595 117.787C38.035 80.0797 51.4795 38.461 85.6312 18.4498C120.929 -2.23313 168.53 -5.35524 205.149 12.7904C239.716 29.9193 242.144 77.615 266.088 107.872C287.666 135.139 325.641 147.568 337.642 180.218C351.338 217.481 352.595 260.623 335.398 296.441C317.58 333.554 282.902 361.334 244.108 375.039C207.028 388.138 168.085 375.13 129.221 369.277C87.3537 362.971 32.7493 374.621 8.92283 339.618C-15.4612 303.795 19.852 256.728 23.1732 213.484C25.6784 180.865 15.9801 148.949 25.9595 117.787Z" fill="#043CAA" fill-opacity="0.3"/>
<path fill-rule="evenodd" clip-rule="evenodd" d="M180.997 68.2817C213.755 61.1734 249.961 53.4132 279.09 69.9821C309.197 87.1071 331.636 120.687 333.833 155.217C335.906 187.812 301.964 209.782 289.915 240.146C279.057 267.509 286.02 300.614 267.161 323.234C245.638 349.05 214.538 368.234 180.997 370.788C146.244 373.434 111.195 359.768 84.7253 337.125C59.4243 315.483 52.4766 281.424 40.3168 250.451C27.2171 217.085 -4.439 181.981 11.1392 149.694C27.0819 116.652 76.54 122.619 109.653 106.748C134.629 94.7771 153.924 74.1561 180.997 68.2817Z" fill="#043CAA"/>
</svg>
